<svg width="27" height="27" viewBox="0 0 27 27" fill="none" xmlns="http://www.w3.org/2000/svg">
<path fill-rule="evenodd" clip-rule="evenodd" d="M26.7 13.5C26.7 17.0008 25.3093 20.3583 22.8338 22.8338C20.3583 25.3093 17.0008 26.7 13.5 26.7C9.99913 26.7 6.64166 25.3093 4.16618 22.8338C1.6907 20.3583 0.299988 17.0008 0.299988 13.5C0.299988 9.99913 1.6907 6.64166 4.16618 4.16618C6.64166 1.6907 9.99913 0.299988 13.5 0.299988C17.0008 0.299988 20.3583 1.6907 22.8338 4.16618C25.3093 6.64166 26.7 9.99913 26.7 13.5ZM16.8 8.54999C16.8 9.4252 16.4523 10.2646 15.8334 10.8834C15.2146 11.5023 14.3752 11.85 13.5 11.85C12.6248 11.85 11.7854 11.5023 11.1665 10.8834C10.5477 10.2646 10.2 9.4252 10.2 8.54999C10.2 7.67477 10.5477 6.83541 11.1665 6.21654C11.7854 5.59767 12.6248 5.24999 13.5 5.24999C14.3752 5.24999 15.2146 5.59767 15.8334 6.21654C16.4523 6.83541 16.8 7.67477 16.8 8.54999ZM13.5 15.15C11.9203 15.1497 10.3737 15.6029 9.04402 16.4558C7.71435 17.3087 6.65751 18.5254 5.99909 19.9614C6.92751 21.0415 8.07854 21.908 9.37325 22.5015C10.668 23.0951 12.0757 23.4015 13.5 23.4C14.9243 23.4015 16.332 23.0951 17.6267 22.5015C18.9214 21.908 20.0725 21.0415 21.0009 19.9614C20.3425 18.5254 19.2856 17.3087 17.956 16.4558C16.6263 15.6029 15.0797 15.1497 13.5 15.15Z" fill="white"/>
</svg>
