<svg width="16" height="16" viewBox="0 0 16 16" fill="none" xmlns="http://www.w3.org/2000/svg">
<path d="M6.61285 0.666672H8.00008C8.28265 0.666672 8.51171 0.895736 8.51171 1.1783C8.51171 1.46086 8.28265 1.68993 8.00008 1.68993H6.63574C5.67217 1.68993 4.98026 1.69033 4.43716 1.7347C3.90003 1.77858 3.55367 1.86292 3.27301 2.00592C2.72748 2.28388 2.28396 2.72741 2.006 3.27293C1.863 3.5536 1.77866 3.89996 1.73478 4.43709C1.6904 4.98019 1.69 5.67209 1.69 6.63566V9.36435C1.69 10.3279 1.6904 11.0198 1.73478 11.5629C1.77866 12.1001 1.863 12.4464 2.006 12.7271C2.28396 13.2726 2.72748 13.7161 3.27301 13.9941C3.55367 14.1371 3.90003 14.2214 4.43716 14.2653C4.98026 14.3097 5.67217 14.3101 6.63574 14.3101H9.36442C10.328 14.3101 11.0199 14.3097 11.563 14.2653C12.1001 14.2214 12.4465 14.1371 12.7272 13.9941C13.2727 13.7161 13.7162 13.2726 13.9942 12.7271C14.1372 12.4464 14.2215 12.1001 14.2654 11.5629C14.3098 11.0198 14.3102 10.3279 14.3102 9.36435V8C14.3102 7.71744 14.5392 7.48838 14.8218 7.48838C15.1044 7.48838 15.3334 7.71744 15.3334 8V9.38725C15.3334 10.323 15.3334 11.0566 15.2852 11.6462C15.2362 12.2467 15.1346 12.7427 14.9059 13.1916C14.5298 13.9297 13.9298 14.5298 13.1917 14.9058C12.7427 15.1346 12.2467 15.2361 11.6463 15.2852C11.0567 15.3333 10.3231 15.3333 9.38739 15.3333H6.61283C5.67713 15.3333 4.94345 15.3333 4.35384 15.2852C3.75343 15.2361 3.25742 15.1346 2.80846 14.9058C2.0704 14.5298 1.47033 13.9297 1.09427 13.1916C0.865518 12.7427 0.763973 12.2467 0.714918 11.6462C0.666743 11.0566 0.666745 10.323 0.666748 9.38725V6.61277C0.666745 5.67703 0.666743 4.94339 0.714918 4.35376C0.763973 3.75335 0.865518 3.25734 1.09427 2.80838C1.47033 2.07032 2.0704 1.47026 2.80846 1.0942C3.25742 0.865442 3.75343 0.763897 4.35384 0.714841C4.94347 0.666667 5.67711 0.666669 6.61285 0.666672Z" fill="#374151"/>
<path fill-rule="evenodd" clip-rule="evenodd" d="M11.5134 1.71959C12.229 1.0692 13.3216 1.0692 14.0371 1.71959C14.0704 1.74985 14.1058 1.78523 14.1517 1.83115L14.1689 1.84835C14.2148 1.89428 14.2502 1.92968 14.2805 1.96298C14.9309 2.67849 14.9309 3.77113 14.2805 4.48664C14.2502 4.51994 14.2149 4.55531 14.1689 4.60124L11.2334 7.53677C10.9438 7.8264 10.7571 8.01319 10.5429 8.16715C10.3531 8.30356 10.1492 8.41905 9.93456 8.51159C9.69236 8.61603 9.43612 8.68005 9.03876 8.77934L7.442 9.17853C7.26765 9.22212 7.08321 9.17103 6.95614 9.04395C6.82906 8.91687 6.77797 8.73244 6.82156 8.55809L7.22075 6.96132C7.32004 6.56397 7.38406 6.30773 7.4885 6.06552C7.58104 5.85091 7.69652 5.64694 7.83294 5.45718C7.98689 5.24301 8.17367 5.05628 8.4633 4.76672L11.3988 1.8312C11.4447 1.78528 11.4802 1.74985 11.5134 1.71959ZM13.3488 2.47678C13.0236 2.18115 12.5269 2.18115 12.2017 2.47678C12.189 2.48838 12.1723 2.50482 12.1138 2.56333L11.9044 2.77276C11.8878 3.5069 12.4932 4.11227 13.2273 4.09572L13.4368 3.88629C13.4953 3.82778 13.5117 3.81113 13.5233 3.79837C13.8189 3.47314 13.8189 2.97648 13.5233 2.65125C13.5117 2.63849 13.4953 2.62184 13.4368 2.56333C13.3782 2.50482 13.3616 2.48838 13.3488 2.47678ZM12.3603 4.96272C11.7564 4.72692 11.2732 4.24372 11.0374 3.63976L9.21695 5.46018C8.88731 5.78982 8.76336 5.91594 8.66379 6.05445C8.57046 6.18429 8.49144 6.32385 8.42813 6.47068C8.36059 6.62732 8.31621 6.79849 8.20314 7.25076L8.02108 7.97901L8.74933 7.79695C9.20159 7.68388 9.37276 7.6395 9.5294 7.57196C9.67624 7.50864 9.8158 7.42963 9.94564 7.33629C10.0841 7.23673 10.2103 7.11278 10.5399 6.78314L12.3603 4.96272Z" fill="#374151"/>
</svg>
