<svg width="16" height="16" viewBox="0 0 16 16" fill="none" xmlns="http://www.w3.org/2000/svg">
<path fill-rule="evenodd" clip-rule="evenodd" d="M7.05928 0.66673H8.94069C9.29036 0.666278 9.59727 0.66582 9.87074 0.773377C10.1098 0.86742 10.3215 1.01999 10.4864 1.21711C10.6749 1.44253 10.7715 1.73383 10.8816 2.06573L11.0974 2.71336H14.8216C15.1042 2.71336 15.3332 2.94242 15.3332 3.22498C15.3332 3.50754 15.1042 3.7366 14.8216 3.7366H13.9397L13.5263 10.7642C13.4848 11.469 13.452 12.0282 13.3893 12.4786C13.3251 12.9398 13.2249 13.3287 13.0264 13.6816C12.7037 14.2553 12.2139 14.7172 11.6222 15.0056C11.2582 15.1831 10.8642 15.2603 10.4 15.2973C9.94667 15.3333 9.38634 15.3333 8.6803 15.3333H7.31966C6.61363 15.3333 6.05333 15.3333 5.59997 15.2973C5.13576 15.2603 4.74176 15.1831 4.37778 15.0056C3.78607 14.7172 3.29626 14.2553 2.97354 13.6816C2.77502 13.3287 2.67487 12.9398 2.61069 12.4786C2.54801 12.0282 2.51512 11.4688 2.47366 10.7641L2.06028 3.7366H1.17837C0.895811 3.7366 0.666748 3.50754 0.666748 3.22498C0.666748 2.94242 0.895811 2.71336 1.17837 2.71336H4.90258L5.11838 2.06574C5.22847 1.73384 5.32508 1.44253 5.51359 1.21711C5.67843 1.01999 5.89012 0.86742 6.12924 0.773377C6.40271 0.66582 6.70961 0.666278 7.05928 0.66673ZM10.7167 3.7366H5.28328C5.27539 3.73678 5.26747 3.73678 5.25954 3.7366H3.08529L3.49386 10.6822C3.53688 11.4136 3.56777 11.9323 3.62417 12.3376C3.67971 12.7368 3.75519 12.984 3.86538 13.18C4.08619 13.5725 4.42132 13.8885 4.82617 14.0859C5.02822 14.1844 5.27946 14.2452 5.68123 14.2772C6.0892 14.3098 6.60876 14.3101 7.34143 14.3101H8.65854C9.39118 14.3101 9.91079 14.3098 10.3187 14.2772C10.7205 14.2452 10.9718 14.1844 11.1738 14.0859C11.5787 13.8885 11.9138 13.5725 12.1346 13.18C12.2448 12.984 12.3203 12.7368 12.3758 12.3376C12.4322 11.9323 12.4631 11.4136 12.5061 10.6822L12.9147 3.7366H10.7404C10.7325 3.73678 10.7246 3.73678 10.7167 3.7366ZM10.0188 2.71336L9.93425 2.45975C9.78629 2.01578 9.74857 1.92991 9.70143 1.87353C9.64652 1.80782 9.57591 1.75697 9.49624 1.72561C9.42782 1.69872 9.33443 1.69011 8.86647 1.69011H7.1335C6.66554 1.69011 6.57216 1.69872 6.50375 1.72561C6.42405 1.75697 6.35349 1.80782 6.29854 1.87353C6.25139 1.92991 6.2137 2.01578 6.06571 2.45975L5.98118 2.71336H10.0188Z" fill="#374151"/>
</svg>
